<mxfile host="app.diagrams.net" modified="2022-06-22T15:00:06.083Z" agent="5.0 (Macintosh; Intel Mac OS X 10_15_7) AppleWebKit/537.36 (KHTML, like Gecko) Chrome/102.0.0.0 Safari/537.36" etag="YE7dkbdUcnLdkKejlRMD" version="20.0.2" type="github">
  <diagram id="ZwTpmNyhu2WbToG7CqAA" name="Page-1">
    <mxGraphModel dx="1033" dy="656" grid="1" gridSize="10" guides="1" tooltips="1" connect="1" arrows="1" fold="1" page="1" pageScale="1" pageWidth="3300" pageHeight="4681" math="0" shadow="0">
      <root>
        <mxCell id="0" />
        <mxCell id="1" parent="0" />
        <mxCell id="fturPiieSPPKEX88rQwo-3" style="edgeStyle=orthogonalEdgeStyle;rounded=0;orthogonalLoop=1;jettySize=auto;html=1;" edge="1" parent="1" source="fturPiieSPPKEX88rQwo-1" target="fturPiieSPPKEX88rQwo-2">
          <mxGeometry relative="1" as="geometry" />
        </mxCell>
        <mxCell id="fturPiieSPPKEX88rQwo-1" value="Actor" style="shape=umlActor;verticalLabelPosition=bottom;verticalAlign=top;html=1;outlineConnect=0;" vertex="1" parent="1">
          <mxGeometry x="170" y="140" width="30" height="60" as="geometry" />
        </mxCell>
        <mxCell id="fturPiieSPPKEX88rQwo-2" value="" style="ellipse;whiteSpace=wrap;html=1;" vertex="1" parent="1">
          <mxGeometry x="390" y="130" width="120" height="80" as="geometry" />
        </mxCell>
      </root>
    </mxGraphModel>
  </diagram>
</mxfile>
